<svg width="43" height="26" viewBox="0 0 43 26" fill="none" xmlns="http://www.w3.org/2000/svg">
<path d="M7.07181 13.4756V19.5685C7.07181 19.6658 7.10919 19.7509 7.18394 19.8239C7.25869 19.8725 7.33344 19.8968 7.4082 19.8968H10.7347C11.0088 19.8968 11.1458 19.7874 11.1458 19.5685V0.59668H17.6493V22.4143C17.6493 23.2169 17.3752 23.8858 16.827 24.4209C16.2788 24.956 15.606 25.2235 14.8087 25.2235H3.44632C2.67388 25.2235 2.00111 24.956 1.42801 24.4209C0.85491 23.8858 0.568359 23.2169 0.568359 22.4143V13.4756H7.07181Z" fill="#E2E8F0"/>
<path d="M23.3348 25.2235V0.59668H38.8833C39.9298 0.59668 40.7521 0.888553 41.3501 1.4723C41.9481 2.03173 42.2472 2.77357 42.2472 3.69784V9.17048C42.2472 10.0218 41.9606 10.8123 41.3875 11.542C40.8393 12.2473 39.9797 12.7338 38.8085 13.0013C39.9797 13.2689 40.8767 13.7553 41.4996 14.4607C42.1226 15.1417 42.434 15.8957 42.434 16.7227V22.0859C42.434 23.0588 42.135 23.825 41.537 24.3844C40.939 24.9438 40.1167 25.2235 39.0702 25.2235H23.3348ZM36.0053 15.5187C36.0053 15.4214 35.968 15.3363 35.8932 15.2633C35.8434 15.1661 35.7562 15.1174 35.6316 15.1174H29.8009V20.5536H35.6316C35.8807 20.5536 36.0053 20.4319 36.0053 20.1887V15.5187ZM36.0053 5.88689C36.0053 5.7896 35.968 5.70447 35.8932 5.63151C35.8434 5.53421 35.7562 5.48557 35.6316 5.48557H29.8009V10.5934H35.6316C35.8807 10.5934 36.0053 10.4596 36.0053 10.192V5.88689Z" fill="#E2E8F0"/>
</svg>
