<svg width="44" height="44" viewBox="0 0 44 44" fill="none" xmlns="http://www.w3.org/2000/svg">
<rect width="44" height="44" fill="white"/>
<path d="M27.1202 11.2079C27.1078 11.3304 27.215 11.4344 27.3379 11.428C27.362 11.4268 27.3861 11.4246 27.4101 11.4215C27.4356 11.4182 27.4605 11.4109 27.4843 11.4012C27.7601 11.2888 28.0209 11.1556 28.2897 11.0314C28.4112 10.9759 28.5326 10.919 28.6569 10.872C28.7813 10.8251 28.9576 10.7895 29.0906 10.7297C29.2433 10.6471 29.4126 10.5985 29.5865 10.5874C29.6813 10.5721 29.7704 10.5329 29.8452 10.4735C29.9253 10.4111 30.0226 10.3738 30.1245 10.3667C30.2264 10.3596 30.3281 10.383 30.4163 10.4337C30.6201 10.5376 30.85 10.5931 31.0119 10.7724C31.1136 10.8816 31.191 11.0106 31.2391 11.1511C31.2871 11.2915 31.3048 11.4403 31.2909 11.5879C31.2835 11.7311 31.2517 11.8721 31.1969 12.0049C31.1349 12.1536 31.0406 12.2871 30.9208 12.3963C30.7671 12.5292 30.5869 12.6291 30.3917 12.6895C30.0343 12.8033 29.6939 12.9636 29.3798 13.1663C29.2864 13.2154 29.1852 13.2486 29.0805 13.2645C28.8027 13.3048 28.5383 13.4087 28.3085 13.5676C28.0895 13.705 27.8615 13.8281 27.6262 13.9362C27.3631 14.0786 27.1043 14.2294 26.8383 14.3632C26.7855 14.3864 26.7398 14.423 26.706 14.4693C26.6722 14.5155 26.6515 14.5698 26.6461 14.6265C26.6186 14.8357 26.5853 15.0435 26.5608 15.2513C26.4943 15.7907 26.4769 16.3401 26.3555 16.8653C26.2109 17.4673 26.2341 18.0793 26.1372 18.6799C26.0866 18.9987 25.9926 19.3104 25.916 19.6263C25.8999 19.7204 25.8926 19.8156 25.8943 19.911C25.8857 20.1785 25.877 20.4447 25.8784 20.7123C25.872 20.8711 26.0294 21.0339 26.1623 20.9467C26.178 20.9364 26.1929 20.9245 26.2066 20.9115C26.3102 20.8108 26.4068 20.7033 26.4957 20.5899C26.7126 20.3209 26.9294 20.0462 27.1405 19.7772C27.1949 19.6973 27.2646 19.6287 27.3457 19.5751C27.6002 19.4413 27.7245 19.2051 27.8792 18.9873C28.1163 18.6543 28.4574 18.418 28.7711 18.1718C28.8911 18.0764 29.001 17.9697 29.1239 17.8786C29.2465 17.7862 29.3749 17.7016 29.5084 17.6253C29.7694 17.4609 30.0424 17.3158 30.3252 17.1912C30.6852 17.0489 31.0177 16.8226 31.3805 16.7414C31.8547 16.6375 32.3274 16.4568 32.8334 16.4966C32.8916 16.5035 32.9506 16.4986 33.0068 16.4824C33.322 16.3785 33.6371 16.4411 33.9523 16.4824C34.1749 16.4942 34.3958 16.528 34.6115 16.5835C34.9805 16.6896 35.3375 16.8327 35.6769 17.0104C35.9913 17.2177 36.2912 17.4455 36.5747 17.6922C36.774 17.8469 36.9297 18.0492 37.0272 18.2799C37.1247 18.4976 37.2459 18.7042 37.3886 18.8962C37.5331 19.0912 37.591 19.3445 37.6893 19.5722C37.8646 19.9985 37.9578 20.4531 37.9639 20.9129C37.9769 21.2374 37.9263 21.5676 37.9769 21.885C38.042 22.2849 37.9538 22.6621 37.9047 23.0478C37.8789 23.2551 37.8349 23.4599 37.7731 23.6598C37.6705 23.9871 37.5461 24.3073 37.4305 24.6304C37.4074 24.693 37.3568 24.7557 37.3597 24.8154C37.3756 25.1157 37.1949 25.3392 37.0705 25.5854C36.9028 25.9184 36.7294 26.2486 36.553 26.5817C36.4835 26.7075 36.4057 26.8287 36.3202 26.9446C36.1757 27.1481 36.0181 27.3431 35.8779 27.548C35.5526 28.022 35.2375 28.5016 34.9122 28.9713C34.8319 29.0794 34.7451 29.1825 34.652 29.2801L33.9928 29.9946C33.9542 30.0373 33.9137 30.0786 33.8713 30.1184C33.5663 30.4031 33.2642 30.7034 32.9505 30.9852C32.7004 31.21 32.4358 31.4121 32.1771 31.6356C32.1539 31.6527 32.125 31.6783 32.1004 31.6769C31.8561 31.6626 31.7549 31.8391 31.6335 32.0013C31.4051 32.3017 31.0552 32.4539 30.7473 32.6418C30.2423 32.9445 29.7315 33.2381 29.2149 33.5228C28.6843 33.8211 28.1194 34.0562 27.5322 34.223C27.4754 34.234 27.4204 34.2527 27.3689 34.2785C26.9786 34.5262 26.5333 34.6258 26.0909 34.7311C25.5286 34.8663 24.9706 35.0158 24.4125 35.1581C24.1674 35.2097 23.9184 35.2421 23.668 35.2549C23.3789 35.2819 23.0826 35.2719 22.8007 35.326C22.3164 35.42 21.8321 35.3844 21.3478 35.3815C20.9791 35.3857 20.6108 35.3604 20.2462 35.3061C19.9947 35.2648 19.7605 35.1253 19.5104 35.0528C18.9134 34.8806 18.4638 34.4835 17.9896 34.1191C17.8147 33.9768 17.6455 33.8345 17.4677 33.7064C17.2422 33.5384 17.1381 33.5641 16.9574 33.7775C16.8048 33.9358 16.6441 34.0864 16.476 34.2287C16.3806 34.3198 16.2866 34.4123 16.2013 34.5134C16.1508 34.5703 16.1291 34.6557 16.0741 34.7041C15.785 34.946 15.4959 35.1794 15.2068 35.4157L14.6979 35.8355C14.6675 35.8597 14.6444 35.901 14.6112 35.9124C14.2541 36.0263 13.9968 36.3009 13.6744 36.4703C13.6153 36.5114 13.5479 36.5395 13.4768 36.5527C13.4058 36.566 13.3326 36.5641 13.2624 36.5472C13.2155 36.5421 13.1681 36.5463 13.123 36.5595C13.0778 36.5727 13.0357 36.5946 12.9993 36.624C12.8585 36.7244 12.6988 36.796 12.5294 36.8347C11.9283 36.9855 11.3054 37.0337 10.6877 36.977C10.5527 36.9715 10.4188 36.9505 10.2887 36.9144C9.93019 36.7962 9.57601 36.6667 9.22327 36.5343C9.12502 36.4942 9.03226 36.4421 8.94716 36.3792C8.71731 36.2363 8.5006 36.074 8.29951 35.8939C8.10015 35.6758 7.91977 35.4415 7.76029 35.1937C7.66199 35.0513 7.59693 34.8905 7.50586 34.7453C7.33961 34.482 7.1936 34.2173 7.20517 33.8914C7.19981 33.7939 7.17883 33.6978 7.143 33.6068C6.98995 33.1125 6.95922 32.5894 7.05338 32.081C7.06623 32.0347 7.07064 31.9866 7.06639 31.9387C6.9782 31.3794 7.10686 30.8386 7.22396 30.2992C7.31702 29.8763 7.43844 29.4535 7.54609 29.0306C7.54818 29.0224 7.5486 29.0145 7.54978 29.0061C7.55138 28.9948 7.55812 28.9842 7.56151 28.9733C7.68607 28.5733 7.93074 28.2282 8.02629 27.8028C8.11736 27.3972 8.38336 27.0257 8.59587 26.6514C8.71296 26.445 8.88499 26.2671 9.01944 26.0707C9.07687 25.997 9.11509 25.9105 9.13075 25.8188C9.14284 25.7249 9.17451 25.6345 9.22376 25.5531C9.27302 25.4718 9.3388 25.4014 9.41699 25.3463C9.54672 25.2454 9.64287 25.1086 9.6931 24.9535C9.71728 24.8709 9.75646 24.7932 9.80875 24.7244C10.0314 24.4482 10.2627 24.1807 10.4896 23.9088C10.52 23.8733 10.5489 23.8334 10.5778 23.795C10.7224 23.6043 10.8539 23.405 11.0115 23.2257C11.292 22.8998 11.5898 22.5852 11.8789 22.2664C11.9107 22.2294 11.9555 22.1995 11.9729 22.1583C12.1174 21.8366 12.3878 21.6331 12.6176 21.3883C12.7824 21.2132 12.9284 21.0211 13.099 20.8532C13.2436 20.7108 13.4257 20.5842 13.5833 20.4433C13.7039 20.3338 13.8179 20.2173 13.9245 20.0946C14.1439 19.8528 14.3987 19.6446 14.6805 19.4769C14.7731 19.4142 14.8585 19.3416 14.935 19.2606C15.0421 19.1266 15.159 19.0005 15.2848 18.8834C15.6161 18.6336 15.9494 18.3862 16.2837 18.1397C17.3731 17.3362 17.9177 16.9344 17.962 16.9008C18.488 16.5015 18.193 16.7538 18.669 16.2961C18.7091 16.2576 18.5532 16.4117 18.6156 16.35C18.6682 16.2938 18.7315 16.2483 18.802 16.2163C19.2965 16.0213 19.6694 15.6342 20.1176 15.378C20.4015 15.2175 20.4918 14.9817 20.4298 14.6803C20.417 14.6183 20.3895 14.5601 20.375 14.4985C20.3548 14.4121 20.3805 14.3238 20.3982 14.2369C20.4626 13.9207 20.4032 13.6111 20.3561 13.2915C20.278 12.782 20.2115 12.2725 20.119 11.7658C20.0964 11.6637 20.0537 11.567 19.9932 11.4812C19.9632 11.4309 19.9178 11.3914 19.8635 11.3681C19.8093 11.3448 19.7489 11.3391 19.6911 11.3516C19.5851 11.3595 19.4806 11.381 19.3803 11.4157C18.9567 11.6135 18.4912 11.6804 18.0879 11.9608C17.7424 12.1999 17.3795 12.4233 17.0413 12.6724C16.6336 12.977 16.2332 13.2944 15.8356 13.6132C15.7461 13.7005 15.6616 13.7926 15.5826 13.8893C15.4381 14.0316 15.2863 14.1611 15.1489 14.302C14.8406 14.5781 14.5664 14.8891 14.3321 15.2285C14.1723 15.4437 13.9974 15.6477 13.8088 15.8391C13.5891 16.1038 13.3896 16.3856 13.1597 16.6418C12.9299 16.898 12.6769 17.1314 12.4268 17.3677C12.3748 17.4106 12.3118 17.4387 12.2446 17.4488C11.9838 17.4819 11.7188 17.4364 11.4847 17.3182C11.2506 17.2001 11.0584 17.0149 10.9335 16.787C10.844 16.6343 10.7999 16.4601 10.806 16.284C10.8121 16.1079 10.8683 15.937 10.9682 15.7907C11.1228 15.5602 11.2963 15.3424 11.4611 15.1189C11.6548 14.8556 11.8485 14.5938 12.0394 14.3319C12.1594 14.1711 12.2822 14.0117 12.4066 13.8537C12.4417 13.7978 12.488 13.7494 12.5424 13.7114C12.8316 13.5577 12.9761 13.2844 13.1742 13.0524C13.3719 12.7799 13.608 12.5365 13.8753 12.3294C13.9896 12.2399 14.0929 12.1377 14.1832 12.0248C14.4148 11.7547 14.6811 11.5155 14.9755 11.3132C15.4207 11.0286 15.8327 10.6898 16.2505 10.3639C16.5182 10.1576 16.8206 9.99916 17.1439 9.89568C17.2439 9.8615 17.3407 9.81864 17.433 9.76759C17.7034 9.62527 17.9679 9.46159 18.2382 9.31215C18.2977 9.27829 18.3648 9.25969 18.4334 9.25807C18.7238 9.24324 19.0094 9.1792 19.2777 9.06878C19.3579 9.03525 19.4466 9.02633 19.5321 9.04316C19.7253 9.10093 19.9288 9.1179 20.1291 9.09298C20.4999 9.0713 20.866 9.18253 21.1599 9.40609C21.7267 9.79897 22.1463 10.3647 22.354 11.0158C22.4314 11.2043 22.4314 11.415 22.354 11.6036C22.3321 11.6465 22.3247 11.6951 22.3327 11.7424C22.3408 11.7897 22.3639 11.8333 22.3988 11.8669C22.599 12.117 22.7016 12.4296 22.6879 12.7478C22.7005 12.9853 22.7423 13.2204 22.8122 13.4481C22.8599 13.6217 22.9481 13.6502 23.1245 13.6046C23.1717 13.5929 23.2173 13.5757 23.2604 13.5534C23.5669 13.3883 23.8733 13.2246 24.1755 13.0538C24.2732 13.0001 24.3559 12.9234 24.4162 12.8305C24.4765 12.7376 24.5125 12.6315 24.521 12.5215C24.6005 11.8882 24.6973 11.2563 24.787 10.6244C24.8477 10.1974 24.9127 9.77043 24.9677 9.34346C25.0125 8.99335 25.0414 8.64323 25.0848 8.29312C25.1146 8.04647 25.2038 7.81042 25.3452 7.60468C25.4865 7.39893 25.6758 7.22946 25.8972 7.11041C26.0448 7.02311 26.2174 6.98598 26.3885 7.00476C26.5596 7.02353 26.7197 7.09716 26.8441 7.21431C26.8893 7.25276 26.9377 7.2875 26.9887 7.3182C27.3775 7.54734 27.4469 7.90458 27.405 8.31447C27.3949 8.41694 27.3963 8.52226 27.3906 8.62615C27.3775 8.86241 27.3732 9.09867 27.3457 9.33777C27.3053 9.68789 27.2576 10.038 27.2012 10.3853C27.1382 10.6549 27.111 10.9314 27.1202 11.2079ZM22.221 33.0873C22.2178 33.0873 22.2152 33.0899 22.2152 33.0931V33.0961C22.2152 33.1013 22.2197 33.1053 22.2248 33.1048C22.7232 33.0569 23.2202 33.0157 23.7172 32.9549C23.8659 32.9207 24.0111 32.8731 24.1509 32.8126C24.2317 32.7834 24.3149 32.761 24.3995 32.7457C24.7725 32.6888 25.1455 32.6503 25.4953 32.4824C25.6736 32.3863 25.8709 32.3295 26.0736 32.3159C26.2563 32.3081 26.4348 32.2644 26.599 32.1882C26.7216 32.1314 26.8363 32.0564 26.9655 32.017C27.1246 31.9501 27.2894 31.8918 27.4426 31.8121C27.9226 31.563 28.3953 31.3011 28.8767 31.0563C29.3014 30.8479 29.6993 30.5903 30.0621 30.2892C30.2067 30.1711 30.3512 30.0757 30.4958 29.9647C30.7184 29.7968 30.9468 29.6331 31.1564 29.4495C31.4311 29.2104 31.6971 28.9585 31.9559 28.7023C32.245 28.4176 32.5255 28.133 32.7871 27.8313C32.962 27.6306 33.0936 27.3943 33.2497 27.1766C33.295 27.1034 33.3521 27.038 33.4189 26.983C33.7273 26.7499 33.9668 26.4398 34.1128 26.085C34.3206 25.6313 34.6824 25.254 34.8274 24.7652C34.844 24.7092 34.8684 24.6583 34.8948 24.6062C35.0111 24.4079 35.1135 24.202 35.2013 23.99C35.3421 23.5936 35.4561 23.1885 35.5425 22.7774C35.6131 22.4049 35.6189 22.0189 35.6501 21.6391C35.6516 21.6209 35.6515 21.6025 35.6478 21.5846C35.6439 21.5656 35.6403 21.5464 35.6394 21.527C35.6319 21.366 35.6298 21.2049 35.6148 21.0439C35.6157 20.8552 35.5869 20.6674 35.5295 20.4874C35.3849 20.1757 35.1984 19.8868 35.0278 19.5893C34.6737 18.9745 34.1287 18.6756 33.4217 18.7354C32.8753 18.7838 32.3173 18.8108 31.7997 19.02C31.4701 19.1552 31.1521 19.3161 30.8297 19.4684C30.7888 19.4939 30.7519 19.5251 30.7199 19.5609C30.4047 19.8455 30.0939 20.1302 29.773 20.4148C29.6053 20.5571 29.4116 20.6681 29.2424 20.809C29.1525 20.8946 29.0729 20.9901 29.0053 21.0937C28.9302 21.1933 28.8738 21.3057 28.7957 21.4025C28.6045 21.6409 28.3716 21.8497 28.2171 22.1147C28.1301 22.264 28.0759 22.4355 27.9529 22.5568C27.8315 22.7162 27.7115 22.8784 27.5886 23.0392C27.5308 23.1147 27.4643 23.1816 27.405 23.2598C27.3306 23.3444 27.2648 23.436 27.2084 23.5331C27.0638 23.8419 26.941 24.1707 26.7747 24.4696C26.3825 25.1383 26.025 25.8261 25.7035 26.5304C25.611 26.7411 25.5416 26.9574 25.4332 27.1652C25.1888 27.6278 25.0047 28.1189 24.8853 28.6269C24.7696 29.1108 24.3952 29.3385 23.9832 29.5249C23.9033 29.5596 23.8152 29.5715 23.7288 29.5591C23.3977 29.5093 23.0406 29.505 22.8469 29.1577C22.8353 29.1424 22.8192 29.1309 22.8007 29.125C22.5318 29.004 22.4971 28.7606 22.5115 28.5201C22.526 28.217 22.5824 27.9152 22.6171 27.6135C22.62 27.5888 22.6212 27.564 22.6217 27.5393C22.6239 27.4184 22.6091 27.2966 22.6162 27.1758C22.6225 27.0692 22.6678 26.9697 22.6941 26.8661C22.7376 26.694 22.7318 26.5164 22.7631 26.344C22.7906 26.1946 22.8238 26.0451 22.8513 25.8957C22.8838 25.7761 22.9032 25.6535 22.9091 25.5299C22.894 25.1964 22.937 24.8628 23.0363 24.5436C23.0584 24.4905 23.0668 24.4328 23.0609 24.3757C22.9626 23.9572 23.1288 23.5616 23.1679 23.1574C23.2127 22.7133 23.3283 22.2764 23.4107 21.8366C23.4136 21.7982 23.4136 21.7597 23.4107 21.7213C23.4194 21.4111 23.4266 21.1008 23.4396 20.792C23.4512 20.7263 23.4677 20.6617 23.4888 20.5984C23.5119 20.476 23.5307 20.3536 23.5524 20.2312C23.5914 20.0063 23.6362 19.7815 23.6709 19.5552C23.6912 19.4128 23.6999 19.2705 23.7129 19.1282C23.7461 18.7582 23.7736 18.3881 23.8155 18.0195C23.8777 17.4602 23.9601 16.9037 24.0121 16.3444C24.0367 16.0682 23.8675 15.9558 23.6001 16.0597C23.4041 16.1423 23.2139 16.2373 23.0305 16.3444C22.9201 16.4054 22.8293 16.4959 22.7687 16.6054C22.7081 16.7149 22.6801 16.839 22.6879 16.9635C22.672 17.4203 22.6373 17.8772 22.607 18.3326C22.5961 18.389 22.5816 18.4446 22.5636 18.4991C22.4812 18.8905 22.3887 19.2819 22.3222 19.6776C22.2065 20.3636 22.1227 21.0553 21.9983 21.7398C21.8914 22.3291 21.7468 22.9126 21.6167 23.4975C21.4967 24.0369 21.3724 24.5749 21.2509 25.1143C21.2312 25.1782 21.2191 25.2441 21.2148 25.3107C21.2053 25.5139 21.1398 25.7107 21.0254 25.88C20.977 25.9698 20.941 26.0655 20.9185 26.1647C20.8776 26.4378 20.8142 26.7072 20.7291 26.9702C20.5469 27.3972 20.3185 27.7928 20.2144 28.244C20.1873 28.3155 20.1503 28.3831 20.1046 28.4447C20.0631 28.5091 20.0268 28.5767 19.9961 28.6468C19.7851 29.2403 19.5697 29.8309 19.1504 30.3219C19.1328 30.3448 19.12 30.3709 19.1129 30.3988C19.0247 30.7717 18.9278 31.1474 19.0579 31.526C19.132 31.7027 19.218 31.8743 19.3152 32.0398C19.4751 32.3831 19.7576 32.6566 20.1089 32.8083C20.3359 32.9008 20.5426 33.056 20.8158 33.0346C20.9667 33.0116 21.1205 33.0159 21.2697 33.0474C21.529 33.1258 21.8031 33.1438 22.0706 33.1001C22.1241 33.0887 22.1733 33.0901 22.221 33.0873ZM9.40012 32.9008C9.3998 32.9008 9.39948 32.9009 9.39917 32.9009L9.39337 32.9021C9.35679 32.9098 9.33517 32.9477 9.3471 32.9831C9.46351 33.3287 9.56792 33.6782 9.7119 34.0152C9.72673 34.0401 9.74638 34.0618 9.76972 34.0793C10.2367 34.4792 10.7253 34.8236 11.3975 34.7083C11.4828 34.6927 11.5724 34.7083 11.6592 34.6941C11.7354 34.6864 11.8105 34.6707 11.8832 34.6471C12.048 34.5916 12.21 34.5247 12.3748 34.4707C12.7278 34.3634 13.058 34.1937 13.3491 33.9697C13.6252 33.7477 13.8956 33.5157 14.1832 33.3065C14.5255 33.0717 14.821 32.7769 15.055 32.4369C15.3918 31.9245 15.8457 31.4947 16.1377 30.951C16.1637 30.9103 16.1964 30.8742 16.2346 30.8443C16.3653 30.7272 16.4511 30.5694 16.4775 30.3974C16.5338 30.1355 16.5902 29.875 16.6481 29.6132C16.6986 29.3911 16.7623 29.1705 16.7926 28.9457C16.8432 28.6354 17.0066 28.3764 17.141 28.0917C17.1794 28.0259 17.2335 27.9702 17.2986 27.9295C17.4562 27.8185 17.6224 27.7217 17.7829 27.6135C18.0097 27.4621 18.175 27.2369 18.2498 26.9773C18.3944 26.4934 18.5389 26.0067 18.7298 25.537C18.9524 24.982 19.0435 24.3984 19.1794 23.8291C19.256 23.5046 19.3239 23.1759 19.3948 22.8514C19.428 22.7091 19.4974 22.5824 19.5263 22.4443C19.5914 22.127 19.6391 21.8053 19.6998 21.4879C19.7547 21.2033 19.8443 20.9286 19.8704 20.6454C19.8964 20.3621 19.8602 20.0334 20.0294 19.7558C20.0401 19.7394 20.0446 19.7198 20.0424 19.7003C20.0344 19.4043 20.0739 19.1089 20.1595 18.825C20.1712 18.769 20.1673 18.7109 20.1483 18.6568C20.1293 18.6027 20.0959 18.5547 20.0515 18.5177C20.0072 18.4807 19.9535 18.4562 19.8962 18.4467C19.8389 18.4371 19.78 18.443 19.7258 18.4635C19.6091 18.5101 19.4992 18.5719 19.3991 18.6471C19.2545 18.7496 19.11 18.8606 18.9567 18.9702C18.8801 19.0286 18.8122 19.0926 18.7341 19.1538C18.6098 19.2577 18.4883 19.3645 18.3597 19.4641C18.1313 19.6391 17.8971 19.8085 17.6687 19.985C17.5241 20.1003 17.3795 20.2397 17.2176 20.3394C16.9147 20.5106 16.6406 20.7272 16.4052 20.9812C16.3355 21.0603 16.2523 21.1268 16.1594 21.1777C15.8984 21.3271 15.6739 21.5312 15.5017 21.7754C15.47 21.826 15.4337 21.8737 15.3932 21.9177C14.8482 22.46 14.2989 22.9994 13.7553 23.5431C13.686 23.622 13.6218 23.7052 13.5631 23.7921C13.4023 24.0289 13.2225 24.2526 13.0253 24.4611C12.7976 24.6822 12.595 24.927 12.421 25.1912C12.1883 25.5285 11.8789 25.8117 11.6895 26.1874C11.6823 26.2031 11.6606 26.2131 11.6505 26.2287C11.5464 26.371 11.4409 26.5262 11.3397 26.6756C11.2746 26.771 11.2154 26.8706 11.1532 26.9674C11.0289 27.1595 10.893 27.3445 10.7831 27.5367C10.5807 27.9053 10.3928 28.281 10.2049 28.6553C10.1629 28.7413 10.1262 28.8297 10.095 28.92C10.0242 29.1079 9.97067 29.3029 9.88248 29.4893C9.62328 30.0259 9.48989 30.613 9.49216 31.2072C9.49066 31.3305 9.46309 31.4522 9.4112 31.5644C9.3249 31.7685 9.29594 31.9917 9.32736 32.2106C9.34027 32.4352 9.37455 32.6626 9.40474 32.8956C9.4051 32.8984 9.40293 32.9008 9.40012 32.9008Z" fill="#BFBFBF"/>
</svg>
